<svg xmlns="http://www.w3.org/2000/svg" width="900" height="420" viewBox="0 0 900 420">
<rect width="100%" height="100%" fill="#ffffff"/>
<style>text{font-family:Arial,sans-serif;fill:#111827}.title{font-size:20px;font-weight:bold}.small{font-size:11px}.rate{font-size:12px;font-weight:bold}</style>
<text class="title" x="24" y="30">Sim-to-Real robustness envelope</text>
<text class="small" x="24" y="47">Paired placement manifest; lower scores under stress reveal the transfer boundary.</text>
<rect x="90" y="55" width="760" height="285" fill="#f9fafb" stroke="#d1d5db"/>
<line x1="90" y1="340.0" x2="850" y2="340.0" stroke="#e5e7eb"/>
<text class="small" x="58" y="344.0">0%</text>
<line x1="90" y1="268.8" x2="850" y2="268.8" stroke="#e5e7eb"/>
<text class="small" x="58" y="272.8">25%</text>
<line x1="90" y1="197.5" x2="850" y2="197.5" stroke="#e5e7eb"/>
<text class="small" x="58" y="201.5">50%</text>
<line x1="90" y1="126.2" x2="850" y2="126.2" stroke="#e5e7eb"/>
<text class="small" x="58" y="130.2">75%</text>
<line x1="90" y1="55.0" x2="850" y2="55.0" stroke="#e5e7eb"/>
<text class="small" x="58" y="59.0">100%</text>
<polyline points="90.0,197.5 198.6,183.2 307.1,211.8 415.7,283.0 524.3,283.0 632.9,226.0 741.4,226.0 850.0,183.2" fill="none" stroke="#0f766e" stroke-width="3"/>
<circle cx="90.0" cy="197.5" r="5" fill="#0f766e"/>
<text class="rate" x="76.0" y="187.5">50%</text>
<text class="small" transform="translate(94.0,358) rotate(35)">nominal</text>
<circle cx="198.6" cy="183.2" r="5" fill="#0f766e"/>
<text class="rate" x="184.6" y="173.2">55%</text>
<text class="small" transform="translate(202.6,358) rotate(35)">brightness_085_115</text>
<circle cx="307.1" cy="211.8" r="5" fill="#0f766e"/>
<text class="rate" x="293.1" y="201.8">45%</text>
<text class="small" transform="translate(311.1,358) rotate(35)">rgb_noise_std4</text>
<circle cx="415.7" cy="283.0" r="5" fill="#0f766e"/>
<text class="rate" x="401.7" y="273.0">20%</text>
<text class="small" transform="translate(419.7,358) rotate(35)">camera_dropout_50</text>
<circle cx="524.3" cy="283.0" r="5" fill="#0f766e"/>
<text class="rate" x="510.3" y="273.0">20%</text>
<text class="small" transform="translate(528.3,358) rotate(35)">occlusion_fraction25</text>
<circle cx="632.9" cy="226.0" r="5" fill="#0f766e"/>
<text class="rate" x="618.9" y="216.0">40%</text>
<text class="small" transform="translate(636.9,358) rotate(35)">action_delay_2</text>
<circle cx="741.4" cy="226.0" r="5" fill="#0f766e"/>
<text class="rate" x="727.4" y="216.0">40%</text>
<text class="small" transform="translate(745.4,358) rotate(35)">friction_low_1p2</text>
<circle cx="850.0" cy="183.2" r="5" fill="#0f766e"/>
<text class="rate" x="836.0" y="173.2">55%</text>
<text class="small" transform="translate(854.0,358) rotate(35)">friction_high_1p8</text>
<text class="small" x="405" y="402">evaluation condition (paired order)</text>
<text class="small" transform="translate(18,235) rotate(-90)">closed-loop success rate</text>
</svg>
